<?xml version="1.0" encoding="UTF-8"?>
<mxfile host="app.diagrams.net" modified="2024-04-22T21:09:30.947Z" agent="Mozilla/5.0 (Windows NT 10.0; Win64; x64) AppleWebKit/537.36 (KHTML, like Gecko) Chrome/122.0.0.0 Safari/537.36" etag="j84M34t5Jc-AUvhcMrYq" version="24.2.5" type="device">
  <diagram name="Pagina-1" id="c4b-9YuUd3DGN8zyhhUF">
    <mxGraphModel dx="880" dy="468" grid="1" gridSize="10" guides="1" tooltips="1" connect="1" arrows="1" fold="1" page="1" pageScale="1" pageWidth="827" pageHeight="1169" math="0" shadow="0">
      <root>
        <mxCell id="0" />
        <mxCell id="1" parent="0" />
        <mxCell id="egfajOW1IjGBD9Z9OBia-2" value="mito:Mention" style="graphMlID=n4;shape=rect;rounded=1;arcsize=30;fillColor=#ffff00;strokeColor=#000000;strokeWidth=1.0" parent="1" vertex="1">
          <mxGeometry x="580" y="254" width="81.96822102864604" height="44" as="geometry" />
        </mxCell>
        <mxCell id="egfajOW1IjGBD9Z9OBia-3" value="owl:Thing" style="graphMlID=n4;shape=rect;rounded=1;arcsize=30;fillColor=#ffff00;strokeColor=#000000;strokeWidth=1.0" parent="1" vertex="1">
          <mxGeometry x="690" y="120" width="81.96822102864604" height="44" as="geometry" />
        </mxCell>
        <mxCell id="egfajOW1IjGBD9Z9OBia-5" value="" style="graphMlID=e0;rounded=0;endArrow=block;strokeColor=#000080;strokeWidth=1.0;startArrow=oval;startFill=1;endFill=1;exitX=0;exitY=0;exitDx=0;exitDy=0;entryX=0;entryY=1;entryDx=0;entryDy=0;" parent="1" source="egfajOW1IjGBD9Z9OBia-2" target="egfajOW1IjGBD9Z9OBia-3" edge="1">
          <mxGeometry relative="1" as="geometry">
            <mxPoint x="379.99822102864596" y="350" as="sourcePoint" />
            <mxPoint x="291.968221028646" y="120.93399375913214" as="targetPoint" />
          </mxGeometry>
        </mxCell>
        <mxCell id="egfajOW1IjGBD9Z9OBia-6" value="&lt;span style=&quot;color: rgb(0 , 0 , 128) ; font-family: &amp;quot;dialog&amp;quot; ; font-size: 16px ; background-color: rgb(248 , 249 , 250)&quot;&gt;mito:hasMentioningEntity&lt;/span&gt;" style="text;html=1;align=center;verticalAlign=middle;resizable=0;points=[];labelBackgroundColor=#ffffff;" parent="egfajOW1IjGBD9Z9OBia-5" vertex="1" connectable="0">
          <mxGeometry x="-0.0174" y="2" relative="1" as="geometry">
            <mxPoint x="-23" y="12" as="offset" />
          </mxGeometry>
        </mxCell>
        <mxCell id="egfajOW1IjGBD9Z9OBia-7" value="" style="graphMlID=e0;rounded=0;endArrow=block;strokeColor=#000080;strokeWidth=1.0;startArrow=oval;startFill=1;endFill=1;entryX=1;entryY=1;entryDx=0;entryDy=0;exitX=1;exitY=0;exitDx=0;exitDy=0;" parent="1" source="egfajOW1IjGBD9Z9OBia-2" target="egfajOW1IjGBD9Z9OBia-3" edge="1">
          <mxGeometry relative="1" as="geometry">
            <mxPoint x="310" y="230.08183758898736" as="sourcePoint" />
            <mxPoint x="461" y="230" as="targetPoint" />
          </mxGeometry>
        </mxCell>
        <mxCell id="egfajOW1IjGBD9Z9OBia-8" value="&lt;font face=&quot;dialog&quot; color=&quot;#000080&quot;&gt;&lt;span style=&quot;font-size: 16px; background-color: rgb(248, 249, 250);&quot;&gt;mito:hasMentionedEntity&lt;/span&gt;&lt;/font&gt;" style="text;html=1;align=center;verticalAlign=middle;resizable=0;points=[];labelBackgroundColor=#ffffff;" parent="egfajOW1IjGBD9Z9OBia-7" vertex="1" connectable="0">
          <mxGeometry x="-0.0174" y="2" relative="1" as="geometry">
            <mxPoint x="35" y="-18" as="offset" />
          </mxGeometry>
        </mxCell>
        <mxCell id="egfajOW1IjGBD9Z9OBia-12" value="" style="graphMlID=e0;rounded=0;endArrow=block;strokeColor=#000080;strokeWidth=1.0;startArrow=oval;startFill=1;endFill=1;exitX=0;exitY=0.5;exitDx=0;exitDy=0;entryX=0.5;entryY=0;entryDx=0;entryDy=0;" parent="1" source="egfajOW1IjGBD9Z9OBia-3" target="egfajOW1IjGBD9Z9OBia-3" edge="1">
          <mxGeometry relative="1" as="geometry">
            <mxPoint x="490" y="102" as="sourcePoint" />
            <mxPoint x="580" y="101.5" as="targetPoint" />
            <Array as="points">
              <mxPoint x="640" y="142" />
              <mxPoint x="640" y="90" />
              <mxPoint x="730" y="90" />
            </Array>
          </mxGeometry>
        </mxCell>
        <mxCell id="egfajOW1IjGBD9Z9OBia-13" value="&lt;span style=&quot;color: rgb(0 , 0 , 128) ; font-family: &amp;quot;dialog&amp;quot; ; font-size: 16px ; background-color: rgb(248 , 249 , 250)&quot;&gt;mito:mentions&lt;/span&gt;" style="text;html=1;align=center;verticalAlign=middle;resizable=0;points=[];labelBackgroundColor=#ffffff;" parent="egfajOW1IjGBD9Z9OBia-12" vertex="1" connectable="0">
          <mxGeometry x="-0.0174" y="2" relative="1" as="geometry">
            <mxPoint x="-4" y="3" as="offset" />
          </mxGeometry>
        </mxCell>
        <mxCell id="a3BXeQbyxijJIspZTfV1-2" value="" style="graphMlID=e0;rounded=0;endArrow=block;strokeColor=#000080;strokeWidth=1.0;startArrow=oval;startFill=1;endFill=1;exitX=1;exitY=0.5;exitDx=0;exitDy=0;entryX=0;entryY=0.5;entryDx=0;entryDy=0;" parent="1" source="egfajOW1IjGBD9Z9OBia-2" target="a3BXeQbyxijJIspZTfV1-4" edge="1">
          <mxGeometry relative="1" as="geometry">
            <mxPoint x="380" y="250.08183758898736" as="sourcePoint" />
            <mxPoint x="621" y="340" as="targetPoint" />
          </mxGeometry>
        </mxCell>
        <mxCell id="a3BXeQbyxijJIspZTfV1-3" value="&lt;span style=&quot;color: rgb(0 , 0 , 128) ; font-family: &amp;quot;dialog&amp;quot; ; font-size: 16px ; background-color: rgb(248 , 249 , 250)&quot;&gt;mito:hasMentionType&lt;/span&gt;" style="text;html=1;align=center;verticalAlign=middle;resizable=0;points=[];labelBackgroundColor=#ffffff;" parent="a3BXeQbyxijJIspZTfV1-2" vertex="1" connectable="0">
          <mxGeometry x="-0.0174" y="2" relative="1" as="geometry">
            <mxPoint as="offset" />
          </mxGeometry>
        </mxCell>
        <mxCell id="a3BXeQbyxijJIspZTfV1-4" value="mito:MentionType" style="graphMlID=n4;shape=rect;rounded=1;arcsize=30;fillColor=#ffff00;strokeColor=#000000;strokeWidth=1.0" parent="1" vertex="1">
          <mxGeometry x="827" y="254" width="103" height="44" as="geometry" />
        </mxCell>
        <mxCell id="PI1hFfxfFSIStuNFpYGr-4" value="" style="graphMlID=e0;rounded=0;endArrow=block;strokeColor=#000080;strokeWidth=1.0;startArrow=oval;startFill=1;endFill=1;exitX=1;exitY=0.5;exitDx=0;exitDy=0;entryX=0.5;entryY=0;entryDx=0;entryDy=0;" edge="1" parent="1" source="egfajOW1IjGBD9Z9OBia-3" target="egfajOW1IjGBD9Z9OBia-3">
          <mxGeometry relative="1" as="geometry">
            <mxPoint x="560" y="170.08183758898736" as="sourcePoint" />
            <mxPoint x="630" y="40" as="targetPoint" />
            <Array as="points">
              <mxPoint x="830" y="142" />
              <mxPoint x="830" y="90" />
              <mxPoint x="730" y="90" />
            </Array>
          </mxGeometry>
        </mxCell>
        <mxCell id="PI1hFfxfFSIStuNFpYGr-5" value="&lt;span style=&quot;color: rgb(0 , 0 , 128) ; font-family: &amp;quot;dialog&amp;quot; ; font-size: 16px ; background-color: rgb(248 , 249 , 250)&quot;&gt;mito:isMentionedBy&lt;/span&gt;" style="text;html=1;align=center;verticalAlign=middle;resizable=0;points=[];labelBackgroundColor=#ffffff;" vertex="1" connectable="0" parent="PI1hFfxfFSIStuNFpYGr-4">
          <mxGeometry x="-0.0174" y="2" relative="1" as="geometry">
            <mxPoint as="offset" />
          </mxGeometry>
        </mxCell>
      </root>
    </mxGraphModel>
  </diagram>
</mxfile>
